<svg width="24" height="24" viewBox="0 0 24 24" fill="none" xmlns="http://www.w3.org/2000/svg">
<path fill-rule="evenodd" clip-rule="evenodd" d="M1.3932 13.2525C0.573849 12.6185 0.573848 11.3816 1.3932 10.7476C3.55227 9.07696 5.96319 7.76018 8.53569 6.84652L9.00174 6.681C10.0253 6.31748 11.1021 7.00997 11.24 8.06204C11.3538 8.92905 11.4294 9.80792 11.467 10.6907C13.6071 9.04706 15.9924 7.74979 18.5357 6.84652L19.0017 6.681C20.0253 6.31748 21.1021 7.00997 21.24 8.06204C21.5797 10.6521 21.5797 13.348 21.24 15.9381C21.1021 16.9901 20.0253 17.6826 19.0017 17.3191L18.5357 17.1536C15.9924 16.2503 13.6071 14.953 11.467 13.3094C11.4294 14.1922 11.3538 15.0711 11.24 15.9381C11.1021 16.9901 10.0253 17.6826 9.00173 17.3191L8.53568 17.1536C5.96318 16.2399 3.55227 14.9231 1.3932 13.2525ZM2.31114 11.9339C2.26787 11.9674 2.26787 12.0327 2.31114 12.0662C4.34449 13.6395 6.61501 14.8796 9.03771 15.7401L9.50376 15.9056C9.60396 15.9412 9.73569 15.8733 9.75278 15.743C10.0755 13.2824 10.0755 10.7177 9.75278 8.25709C9.73569 8.12679 9.60396 8.05891 9.50376 8.0945L9.03771 8.26002C6.61501 9.12047 4.34449 10.3606 2.31114 11.9339ZM12.3111 11.9339C12.2679 11.9674 12.2679 12.0327 12.3111 12.0662C14.3445 13.6395 16.615 14.8796 19.0377 15.7401L19.5038 15.9056C19.604 15.9412 19.7357 15.8733 19.7528 15.743C20.0755 13.2824 20.0755 10.7177 19.7528 8.25709C19.7357 8.12679 19.604 8.05891 19.5038 8.0945L19.0377 8.26002C16.615 9.12047 14.3445 10.3606 12.3111 11.9339Z" fill="black"/>
</svg>
