<svg width="24" height="24" viewBox="0 0 24 24" fill="none" xmlns="http://www.w3.org/2000/svg">
<path fillRule="evenodd" clipRule="evenodd" d="M17.9859 5.4238C14.0077 4.97918 9.99236 4.97918 6.01419 5.4238C5.74502 5.45388 5.6154 5.76953 5.78574 5.9801L9.30276 10.3277C10.5627 11.8851 11.25 13.8276 11.25 15.8308V18.7201L12.75 19.8201V15.8308C12.75 13.8276 13.4374 11.8851 14.6973 10.3277L18.2143 5.9801C18.3846 5.76953 18.255 5.45388 17.9859 5.4238ZM5.84758 3.93308C9.93648 3.47608 14.0636 3.47608 18.1525 3.93308C19.5994 4.09479 20.2962 5.79158 19.3805 6.92351L15.8635 11.2711C14.8195 12.5615 14.25 14.171 14.25 15.8308V21.3001C14.25 21.5827 14.0911 21.8414 13.839 21.9691C13.5869 22.0969 13.2844 22.0721 13.0565 21.9049L10.0565 19.7049C9.86384 19.5636 9.75002 19.339 9.75002 19.1001V15.8308C9.75002 14.171 9.18049 12.5615 8.13658 11.2711L4.61956 6.92351C3.70387 5.79158 4.40065 4.09479 5.84758 3.93308Z" fill="black"/>
</svg>
