<svg width="20" height="22" viewBox="0 0 20 22" fill="none" xmlns="http://www.w3.org/2000/svg">
<path fill-rule="evenodd" clip-rule="evenodd" d="M6.41999 6.58394C6.41999 4.52342 7.99625 2.85303 9.94065 2.85303C11.8851 2.85303 13.4613 4.52342 13.4613 6.58394C13.4613 8.64447 11.8851 10.3149 9.94065 10.3149C7.99625 10.3149 6.41999 8.64447 6.41999 6.58394ZM9.94065 4.16982C8.68251 4.16982 7.66258 5.25066 7.66258 6.58394C7.66258 7.91723 8.68251 8.99806 9.94065 8.99806C11.1988 8.99806 12.2187 7.91723 12.2187 6.58394C12.2187 5.25066 11.1988 4.16982 9.94065 4.16982Z" fill="black"/>
<path fill-rule="evenodd" clip-rule="evenodd" d="M6.62709 12.9484C5.5977 12.9484 4.76321 13.8328 4.76321 14.9236V15.9668C4.76321 15.9827 4.77408 15.9962 4.78887 15.9988C8.2008 16.5891 11.6805 16.5891 15.0924 15.9988C15.1072 15.9962 15.1181 15.9827 15.1181 15.9668V14.9236C15.1181 13.8328 14.2836 12.9484 13.2542 12.9484H12.9718C12.95 12.9484 12.9283 12.9521 12.9076 12.9593L12.1906 13.2074C10.7286 13.7133 9.15269 13.7133 7.69073 13.2074L6.97375 12.9593C6.95299 12.9521 6.9313 12.9484 6.90946 12.9484H6.62709ZM3.52063 14.9236C3.52063 13.1055 4.91144 11.6317 6.62709 11.6317H6.90946C7.0623 11.6317 7.21417 11.6573 7.35945 11.7075L8.07643 11.9556C9.28777 12.3748 10.5935 12.3748 11.8049 11.9556L12.5219 11.7075C12.6671 11.6573 12.819 11.6317 12.9718 11.6317H13.2542C14.9699 11.6317 16.3607 13.1055 16.3607 14.9236V15.9668C16.3607 16.628 15.9085 17.1918 15.2927 17.2984C11.7481 17.9116 8.13319 17.9116 4.58865 17.2984C3.97283 17.1918 3.52063 16.628 3.52063 15.9668V14.9236Z" fill="black"/>
</svg>
